# xmcd
#
# Track frame offsets:
# 150
# 13728
# 28059
# 42563
# 61548
# 87354
# 108009
# 142340
# 162356
# 185481
# 219170
# 249646
# 282114
# 302119
# 324259
# 343989
#
# Disc length: 4792 seconds
#
#
# Revision: 0
# Processed by: cddbd v1.5.1PL2 Copyright (c) Steve Scherf et al.
# Submitted via: FreeRIP 2.945 
#
DISCID=e412b610
DTITLE=Special Dream's-Varios - Special Dream's
DYEAR=2004
DGENRE=Blues
TTITLE0=Jermaine Jackson-Daddy's Home
TTITLE1=Dom Costa-Echo Love
TTITLE2=Burt Bacharach-And Day Now
TTITLE3=Smokey Robinson-Crusin
TTITLE4=Bar Kays-Anticipation
TTITLE5=Billy Paul-Mr. Jones
TTITLE6=Ebo-I Drather Baby My Self
TTITLE7=Delegation-Welcome to My World
TTITLE8=Fat Larry's Band-Peacetul Yourney
TTITLE9=Richard Dimples Filds-If It Aint One Thing...It's Another
TTITLE10=Barry White-Just The Way You Are
TTITLE11=Lisa Daniele-Let Me Down Easy
TTITLE12=The Dramatics-Be May Girl
TTITLE13=Jommy "Bo" Horne-Closer To You
TTITLE14=Gladys Knight e The Pips-Neither One Ofus
TTITLE15=Cissy Huston-Be May Baby
EXTD=neldvd@hotmail.com
EXTT0=
EXTT1=
EXTT2=
EXTT3=
EXTT4=
EXTT5=
EXTT6=
EXTT7=
EXTT8=
EXTT9=
EXTT10=
EXTT11=
EXTT12=
EXTT13=
EXTT14=
EXTT15=
PLAYORDER=
